<svg xmlns="http://www.w3.org/2000/svg" version="1.1" xmlns:xlink="http://www.w3.org/1999/xlink" xmlns:svgjs="http://svgjs.dev/svgjs" width="1000" height="1000" viewBox="0 0 1000 1000"><rect width="1000" height="1000" fill="#ffffff"></rect><g transform="matrix(0.7,0,0,0.7,149.57575757575756,444.776627904212)"><svg viewBox="0 0 396 63" data-background-color="#444444" preserveAspectRatio="xMidYMid meet" height="159" width="1000" xmlns="http://www.w3.org/2000/svg" xmlns:xlink="http://www.w3.org/1999/xlink"><g id="tight-bounds" transform="matrix(1,0,0,1,0.2400000000000091,-0.24148749295014227)"><svg viewBox="0 0 395.52 63.48297498590027" height="63.48297498590027" width="395.52"><g><svg viewBox="0 0 487.04734774375794 78.17358058698942" height="63.48297498590027" width="395.52"><g transform="matrix(1,0,0,1,0,10.804018735249624)"><svg viewBox="0 0 395.52 56.56554311649017" height="56.56554311649017" width="395.52"><g id="textblocktransform"><svg viewBox="0 0 395.52 56.56554311649017" height="56.56554311649017" width="395.52" id="textblock"><g><svg viewBox="0 0 395.52 56.56554311649017" height="56.56554311649017" width="395.52"><g transform="matrix(1,0,0,1,0,0)"><svg width="395.52" viewBox="3.64 -35.39 250.61 35.85" height="56.56554311649017" data-palette-color="#ffffff"><path d="M27.12-16.58L27.12-16.58 27.12 0 20.17 0 20.17-14.86Q20.17-17.64 19.19-19 18.2-20.35 16.08-20.35L16.08-20.35Q13.2-20.35 11.88-18.42 10.57-16.48 10.57-11.96L10.57-11.96 10.57 0 3.64 0 3.64-25.43 8.95-25.43 9.88-22.17 10.26-22.17Q11.4-23.99 13.44-24.95 15.47-25.91 18.07-25.91L18.07-25.91Q22.52-25.91 24.82-23.52 27.12-21.13 27.12-16.58ZM49.29-13.2L49.29-13.2Q51.99-11.15 51.99-7.38 51.99-3.61 49.26-1.58 46.53 0.46 41.42 0.46 36.3 0.46 32.76-1.01L32.76-1.01 32.76-6.75Q34.7-5.84 37.12-5.23 39.53-4.63 41.38-4.63L41.38-4.63Q45.14-4.63 45.14-6.8L45.14-6.8Q45.14-7.89 44.13-8.57 43.12-9.25 39.92-10.64 36.73-12.03 35.31-13.07L35.31-13.07Q33.95-14.13 33.33-15.48 32.71-16.84 32.71-18.81L32.71-18.81Q32.71-22.19 35.34-24.05 37.97-25.91 42.68-25.91 47.39-25.91 51.72-23.91L51.72-23.91 49.62-18.91Q47.42-19.84 45.84-20.31 44.26-20.78 42.67-20.78L42.67-20.78Q39.58-20.78 39.58-19.11L39.58-19.11Q39.58-18.17 40.62-17.47 41.66-16.76 44.75-15.52 47.85-14.28 49.29-13.2ZM67.74 0.46L67.74 0.46Q55.86 0.46 55.86-12.59L55.86-12.59Q55.86-19.06 59.08-22.48 62.31-25.91 68.35-25.91L68.35-25.91Q72.69-25.91 76.26-24.19L76.26-24.19 74.21-18.81Q70.44-20.32 68.35-20.32L68.35-20.32Q62.94-20.32 62.94-12.74 62.94-5.16 68.35-5.16L68.35-5.16Q72.11-5.16 75.48-7.38L75.48-7.38 75.48-1.44Q73.83-0.38 72.13 0.04 70.42 0.46 67.74 0.46ZM81.36-35.39L88.29-35.39 88.29 0 81.36 0 81.36-35.39ZM95.57-25.43L102.49-25.43 102.49 0 95.57 0 95.57-25.43ZM99.05-28.59L99.05-28.59Q95.26-28.59 95.26-31.99 95.26-35.39 99.04-35.39 102.82-35.39 102.82-32L102.82-32Q102.82-30.36 101.86-29.47 100.9-28.59 99.05-28.59ZM133.25-16.58L133.25-16.58 133.25 0 126.3 0 126.3-14.86Q126.3-17.64 125.32-19 124.33-20.35 122.21-20.35L122.21-20.35Q119.33-20.35 118.01-18.42 116.7-16.48 116.7-11.96L116.7-11.96 116.7 0 109.77 0 109.77-25.43 115.08-25.43 116.01-22.17 116.39-22.17Q117.53-23.99 119.57-24.95 121.6-25.91 124.2-25.91L124.2-25.91Q128.65-25.91 130.95-23.52 133.25-21.13 133.25-16.58ZM147.31-7.91L147.31 0 140.38 0 140.38-35.39 147.31-35.39 147.31-19.62 146.95-13.83 147.05-13.83 150.06-17.69 157.19-25.43 165.03-25.43 154.91-14.41 165.63 0 157.62 0 150.29-10.31 147.31-7.91ZM192.75-16.58L192.75-16.58 192.75 0 185.8 0 185.8-14.86Q185.8-20.35 181.71-20.35L181.71-20.35Q178.8-20.35 177.5-18.38 176.2-16.41 176.2-11.96L176.2-11.96 176.2 0 169.27 0 169.27-35.39 176.2-35.39 176.2-28.19Q176.2-26.26 175.89-22.17L175.89-22.17 176.25-22.17Q178.55-25.91 183.63-25.91L183.63-25.91Q188.08-25.91 190.41-23.51 192.75-21.11 192.75-16.58ZM223.21-25.43L223.21 0 217.9 0 216.97-3.26 216.59-3.26Q215.48-1.47 213.43-0.51 211.38 0.46 208.78 0.46L208.78 0.46Q204.33 0.46 202.04-1.93 199.75-4.32 199.75-8.85L199.75-8.85 199.75-25.43 206.68-25.43 206.68-10.57Q206.68-7.81 207.66-6.45 208.65-5.08 210.77-5.08L210.77-5.08Q213.68-5.08 214.98-7.01 216.28-8.95 216.28-13.47L216.28-13.47 216.28-25.43 223.21-25.43ZM245.92-7.15Q247.17-9.15 247.17-12.84 247.17-16.53 245.92-18.44 244.67-20.35 242.26-20.35 239.84-20.35 238.65-18.76 237.46-17.16 237.41-13.55L237.41-13.55 237.41-12.82Q237.41-8.75 238.63-6.95 239.84-5.16 242.5-5.16L242.5-5.16Q244.67-5.16 245.92-7.15ZM237.16-22.14L237.41-22.14Q239.89-25.91 244.53-25.91 249.17-25.91 251.71-22.38 254.25-18.86 254.25-12.66 254.25-6.47 251.62-3.01 248.99 0.46 244.47 0.46 239.94 0.46 237.41-2.81L237.41-2.81 236.96-2.81 235.8 0 230.49 0 230.49-35.39 237.41-35.39 237.41-27.17Q237.41-25.43 237.16-22.14L237.16-22.14Z" opacity="1" transform="matrix(1,0,0,1,0,0)" fill="#000000" class="wordmark-text-0" data-fill-palette-color="primary" id="text-0"></path></svg></g></svg></g></svg></g></svg></g><g transform="matrix(1,0,0,1,408.8737671567685,0)"><svg viewBox="0 0 78.17358058698942 78.17358058698942" height="78.17358058698942" width="78.17358058698942"><g data-palette-color="#00d1cd"><rect width="21.36744536044377" height="78.17358058698942" fill="#000000" stroke="transparent" data-fill-palette-color="accent" x="0" fill-opacity="1"></rect><rect width="21.36744536044377" height="78.17358058698942" fill="#000000" stroke="transparent" data-fill-palette-color="accent" x="26.057860195663135" fill-opacity="0.75"></rect><rect width="21.36744536044377" height="78.17358058698942" fill="#000000" stroke="transparent" data-fill-palette-color="accent" x="52.11572039132627" fill-opacity="0.5"></rect></g></svg></g></svg></g><defs></defs></svg><rect width="395.52" height="63.48297498590027" fill="none" stroke="none" visibility="hidden"></rect></g></svg></g></svg>